<svg version="1.1" id="Layer_1" xmlns="http://www.w3.org/2000/svg" xmlns:xlink="http://www.w3.org/1999/xlink" x="0px" y="0px"
	 width="100%" viewBox="0 0 396 293" enable-background="new 0 0 396 293" xml:space="preserve">
<path fill="#FFFFFF" opacity="0.000000" stroke="none" 
	d="
M248.000000,294.000000 
	C165.333344,294.000000 83.166695,294.000000 1.000033,294.000000 
	C1.000022,196.333359 1.000022,98.666733 1.000011,1.000072 
	C132.999954,1.000048 264.999908,1.000048 396.999878,1.000024 
	C396.999939,98.666595 396.999939,196.333191 396.999969,293.999878 
	C347.500000,294.000000 298.000000,294.000000 248.000000,294.000000 
M184.097168,8.022038 
	C178.342804,7.681360 172.585922,7.024313 166.834656,7.070294 
	C156.917236,7.149583 147.005264,7.840291 137.087372,7.952334 
	C126.199287,8.075338 115.811691,10.604746 105.536438,13.822406 
	C79.113754,22.096584 57.987759,38.105835 39.913612,59.109627 
	C47.819965,69.430428 55.793236,79.911392 63.845608,90.331215 
	C73.517494,102.846695 83.258186,115.309006 92.965126,127.797417 
	C94.292152,129.504669 94.655899,130.987396 93.057144,133.016418 
	C85.798912,142.228104 78.679085,151.550583 71.614952,160.912811 
	C66.641357,167.504425 61.837212,174.223907 56.384823,181.137283 
	C56.590195,181.702728 56.795567,182.268158 57.928154,182.978226 
	C70.921364,182.985474 83.915726,183.078873 96.906509,182.905014 
	C98.805527,182.879593 101.406647,182.142365 102.467232,180.784790 
	C114.407532,165.500931 126.111549,150.032455 137.874756,134.610321 
	C139.967392,131.866760 139.959000,129.093872 137.854370,126.373459 
	C132.063614,118.888405 126.231506,111.435280 120.450241,103.942932 
	C109.906479,90.278526 99.387589,76.594925 88.867554,62.931316 
	C106.532082,47.927834 133.519073,42.198692 150.000000,43.700069 
	C150.000000,45.493233 150.000000,47.308754 150.000000,49.124275 
	C150.000000,108.592957 150.034637,168.061707 149.915482,227.530151 
	C149.908203,231.166718 150.906387,233.684082 153.542496,236.156097 
	C163.224030,245.235001 172.694138,254.539246 182.260559,263.741272 
	C183.029022,264.480469 183.925140,265.086945 185.558243,266.390900 
	C185.744781,263.624908 185.983582,261.732697 185.984009,259.840424 
	C186.002563,177.883591 186.000977,95.926758 185.993057,13.969922 
	C185.992889,12.307931 185.888901,10.645951 185.899765,8.469498 
	C185.606125,8.368553 185.312485,8.267609 184.097168,8.022038 
M217.000000,119.500000 
	C217.000000,168.243256 217.000000,216.986511 217.000000,266.754761 
	C218.777344,265.336670 219.807526,264.640839 220.689865,263.791443 
	C230.616074,254.235443 240.623230,244.758774 250.325699,234.980042 
	C251.917938,233.375320 252.886047,230.415848 252.891434,228.079636 
	C253.029099,168.418961 253.000000,108.757904 253.000000,49.096920 
	C253.000000,47.153793 253.000000,45.210670 253.000000,43.322941 
	C272.719421,41.698986 305.521912,52.585793 313.839935,63.200165 
	C311.602814,66.258339 309.462311,69.345810 307.159058,72.306625 
	C292.922424,90.607574 278.652588,108.882721 264.383423,127.158333 
	C262.696381,129.319046 262.416992,131.331650 264.230835,133.686325 
	C275.181671,147.902573 285.996063,162.224289 297.002350,176.397156 
	C298.924133,178.871811 301.465820,182.598480 303.848083,182.697632 
	C318.105042,183.290939 332.399139,182.991623 348.085388,182.991623 
	C342.905548,176.199081 338.401672,170.331558 333.939178,164.432678 
	C325.877258,153.775665 317.884430,143.065842 309.742920,132.470139 
	C308.572357,130.946716 308.302490,130.184967 309.685822,128.581467 
	C312.334961,125.510727 314.548737,122.069077 317.034180,118.851624 
	C325.517242,107.870193 334.067505,96.940628 342.538635,85.950073 
	C349.476257,76.949120 356.337585,67.889374 363.266632,58.811279 
	C322.532501,18.104856 273.624146,2.555747 217.000000,8.458636 
	C217.000000,45.228104 217.000000,81.864052 217.000000,119.500000 
M140.505554,265.003204 
	C131.287903,256.656769 120.081902,252.570709 108.027191,252.174347 
	C88.385773,251.528549 68.706963,251.928177 49.045963,252.108353 
	C47.024780,252.126862 44.590874,253.181168 43.076153,254.556351 
	C35.838718,261.126953 28.817871,267.938477 21.789877,274.736542 
	C17.681795,278.710205 13.704890,282.819489 9.018232,287.520508 
	C61.135914,287.520508 112.019676,287.520508 164.520447,287.520508 
	C155.955078,279.503998 148.483795,272.511444 140.505554,265.003204 
M355.839203,252.001633 
	C336.350708,252.001099 316.862183,252.000961 297.373688,251.999786 
	C289.082062,251.999298 281.265350,254.078659 273.848267,257.632904 
	C259.948669,264.293579 250.482315,276.111450 240.155746,286.911438 
	C240.051147,287.020813 240.333420,287.500122 240.357346,287.572266 
	C291.252808,287.572266 342.063324,287.572266 393.792023,287.572266 
	C392.053650,285.712830 391.001923,284.490448 389.850098,283.371063 
	C379.498505,273.310760 369.135498,263.262177 358.748291,253.238724 
	C358.189819,252.699844 357.384430,252.416901 355.839203,252.001633 
z"/>
<path fill="#C4164A" opacity="1.000000" stroke="none" 
	d="
M56.957409,180.886292 
	C61.837212,174.223907 66.641357,167.504425 71.614952,160.912811 
	C78.679085,151.550583 85.798912,142.228104 93.057144,133.016418 
	C94.655899,130.987396 94.292152,129.504669 92.965126,127.797417 
	C83.258186,115.309006 73.517494,102.846695 63.845608,90.331215 
	C55.793236,79.911392 47.819965,69.430428 39.913612,59.109627 
	C57.987759,38.105835 79.113754,22.096584 105.536438,13.822406 
	C115.811691,10.604746 126.199287,8.075338 137.087372,7.952334 
	C147.005264,7.840291 156.917236,7.149583 166.834656,7.070294 
	C172.585922,7.024313 178.342804,7.681360 184.649750,8.270212 
	C185.365585,8.737392 185.575928,8.892586 185.833359,8.983966 
	C185.888901,10.645951 185.992889,12.307931 185.993057,13.969922 
	C186.000977,95.926758 186.002563,177.883591 185.984009,259.840424 
	C185.983582,261.732697 185.744781,263.624908 185.558243,266.390900 
	C183.925140,265.086945 183.029022,264.480469 182.260559,263.741272 
	C172.694138,254.539246 163.224030,245.235001 153.542496,236.156097 
	C150.906387,233.684082 149.908203,231.166718 149.915482,227.530151 
	C150.034637,168.061707 150.000000,108.592957 150.000000,49.124275 
	C150.000000,47.308754 150.000000,45.493233 150.000000,43.700069 
	C133.519073,42.198692 106.532082,47.927834 88.867554,62.931316 
	C99.387589,76.594925 109.906479,90.278526 120.450241,103.942932 
	C126.231506,111.435280 132.063614,118.888405 137.854370,126.373459 
	C139.959000,129.093872 139.967392,131.866760 137.874756,134.610321 
	C126.111549,150.032455 114.407532,165.500931 102.467232,180.784790 
	C101.406647,182.142365 98.805527,182.879593 96.906509,182.905014 
	C83.915726,183.078873 70.921364,182.985474 57.462944,182.581360 
	C56.984295,181.751770 56.970852,181.319031 56.957409,180.886292 
z"/>
<path fill="#C4164A" opacity="1.000000" stroke="none" 
	d="
M217.000000,119.000000 
	C217.000000,81.864052 217.000000,45.228104 217.000000,8.458636 
	C273.624146,2.555747 322.532501,18.104856 363.266632,58.811279 
	C356.337585,67.889374 349.476257,76.949120 342.538635,85.950073 
	C334.067505,96.940628 325.517242,107.870193 317.034180,118.851624 
	C314.548737,122.069077 312.334961,125.510727 309.685822,128.581467 
	C308.302490,130.184967 308.572357,130.946716 309.742920,132.470139 
	C317.884430,143.065842 325.877258,153.775665 333.939178,164.432678 
	C338.401672,170.331558 342.905548,176.199081 348.085388,182.991623 
	C332.399139,182.991623 318.105042,183.290939 303.848083,182.697632 
	C301.465820,182.598480 298.924133,178.871811 297.002350,176.397156 
	C285.996063,162.224289 275.181671,147.902573 264.230835,133.686325 
	C262.416992,131.331650 262.696381,129.319046 264.383423,127.158333 
	C278.652588,108.882721 292.922424,90.607574 307.159058,72.306625 
	C309.462311,69.345810 311.602814,66.258339 313.839935,63.200165 
	C305.521912,52.585793 272.719421,41.698986 253.000000,43.322941 
	C253.000000,45.210670 253.000000,47.153793 253.000000,49.096920 
	C253.000000,108.757904 253.029099,168.418961 252.891434,228.079636 
	C252.886047,230.415848 251.917938,233.375320 250.325699,234.980042 
	C240.623230,244.758774 230.616074,254.235443 220.689865,263.791443 
	C219.807526,264.640839 218.777344,265.336670 217.000000,266.754761 
	C217.000000,216.986511 217.000000,168.243256 217.000000,119.000000 
z"/>
<path fill="#C4164A" opacity="1.000000" stroke="none" 
	d="
M140.759033,265.261047 
	C148.483795,272.511444 155.955078,279.503998 164.520447,287.520508 
	C112.019676,287.520508 61.135914,287.520508 9.018232,287.520508 
	C13.704890,282.819489 17.681795,278.710205 21.789877,274.736542 
	C28.817871,267.938477 35.838718,261.126953 43.076153,254.556351 
	C44.590874,253.181168 47.024780,252.126862 49.045963,252.108353 
	C68.706963,251.928177 88.385773,251.528549 108.027191,252.174347 
	C120.081902,252.570709 131.287903,256.656769 140.759033,265.261047 
z"/>
<path fill="#C4164A" opacity="1.000000" stroke="none" 
	d="
M356.266602,252.008224 
	C357.384430,252.416901 358.189819,252.699844 358.748291,253.238724 
	C369.135498,263.262177 379.498505,273.310760 389.850098,283.371063 
	C391.001923,284.490448 392.053650,285.712830 393.792023,287.572266 
	C342.063324,287.572266 291.252808,287.572266 240.357346,287.572266 
	C240.333420,287.500122 240.051147,287.020813 240.155746,286.911438 
	C250.482315,276.111450 259.948669,264.293579 273.848267,257.632904 
	C281.265350,254.078659 289.082062,251.999298 297.373688,251.999786 
	C316.862183,252.000961 336.350708,252.001099 356.266602,252.008224 
z"/>
<path fill="#C4164A" opacity="1.000000" stroke="none" 
	d="
M56.671116,181.011780 
	C56.970852,181.319031 56.984295,181.751770 56.999336,182.509064 
	C56.795567,182.268158 56.590195,181.702728 56.671116,181.011780 
z"/>
<path fill="#C4164A" opacity="1.000000" stroke="none" 
	d="
M185.866562,8.726732 
	C185.575928,8.892586 185.365585,8.737392 185.110596,8.342525 
	C185.312485,8.267609 185.606125,8.368553 185.866562,8.726732 
z"/>
</svg>